<mxfile host="app.diagrams.net" modified="2023-01-30T06:24:54.884Z" agent="5.0 (Windows)" etag="2fH9MqS3gSX6m6BoB0XO" version="20.8.13" type="github" pages="5">
  <diagram id="G152VZkpTh_-b7L7PpDi" name="bomb服务独立">
    <mxGraphModel dx="1050" dy="4045" grid="1" gridSize="10" guides="1" tooltips="1" connect="1" arrows="1" fold="1" page="1" pageScale="1" pageWidth="827" pageHeight="1169" math="0" shadow="0">
      <root>
        <mxCell id="0" />
        <mxCell id="1" parent="0" />
        <mxCell id="BbV9ipTeZK87WqjTc-pe-1" value="" style="whiteSpace=wrap;html=1;aspect=fixed;dashed=1;" parent="1" vertex="1">
          <mxGeometry x="414" y="-2310" width="360" height="360" as="geometry" />
        </mxCell>
        <mxCell id="Ajl7XlEclkEX4MVL0un6-1" value="mysql" style="shape=cylinder3;whiteSpace=wrap;html=1;boundedLbl=1;backgroundOutline=1;size=15;fillColor=#1ba1e2;fontColor=#ffffff;strokeColor=#006EAF;" parent="1" vertex="1">
          <mxGeometry x="300" y="-1930" width="60" height="80" as="geometry" />
        </mxCell>
        <mxCell id="Ajl7XlEclkEX4MVL0un6-7" style="edgeStyle=orthogonalEdgeStyle;rounded=0;orthogonalLoop=1;jettySize=auto;html=1;exitX=0.5;exitY=1;exitDx=0;exitDy=0;entryX=0.5;entryY=0;entryDx=0;entryDy=0;entryPerimeter=0;" parent="1" source="Ajl7XlEclkEX4MVL0un6-2" target="Ajl7XlEclkEX4MVL0un6-1" edge="1">
          <mxGeometry relative="1" as="geometry" />
        </mxCell>
        <mxCell id="Ajl7XlEclkEX4MVL0un6-2" value="oms" style="rounded=0;whiteSpace=wrap;html=1;fillColor=#dae8fc;strokeColor=#6c8ebf;" parent="1" vertex="1">
          <mxGeometry x="270" y="-2087" width="120" height="60" as="geometry" />
        </mxCell>
        <mxCell id="Ajl7XlEclkEX4MVL0un6-15" value="基础信息" style="edgeStyle=orthogonalEdgeStyle;rounded=0;orthogonalLoop=1;jettySize=auto;html=1;exitX=0.5;exitY=1;exitDx=0;exitDy=0;entryX=0.5;entryY=0;entryDx=0;entryDy=0;entryPerimeter=0;shadow=0;sketch=0;fillColor=#e51400;strokeColor=#B20000;" parent="1" source="Ajl7XlEclkEX4MVL0un6-3" target="Ajl7XlEclkEX4MVL0un6-14" edge="1">
          <mxGeometry relative="1" as="geometry" />
        </mxCell>
        <mxCell id="mybRUjiwXN9lIVhRDb3T-2" value="规则数据" style="edgeStyle=orthogonalEdgeStyle;rounded=0;orthogonalLoop=1;jettySize=auto;html=1;exitX=0.5;exitY=0;exitDx=0;exitDy=0;entryX=0.5;entryY=1;entryDx=0;entryDy=0;entryPerimeter=0;" parent="1" source="Ajl7XlEclkEX4MVL0un6-3" target="mybRUjiwXN9lIVhRDb3T-1" edge="1">
          <mxGeometry relative="1" as="geometry" />
        </mxCell>
        <mxCell id="Ajl7XlEclkEX4MVL0un6-3" value="bomb" style="rounded=0;whiteSpace=wrap;html=1;fillColor=#f8cecc;strokeColor=#b85450;" parent="1" vertex="1">
          <mxGeometry x="623" y="-2160" width="120" height="60" as="geometry" />
        </mxCell>
        <mxCell id="Ajl7XlEclkEX4MVL0un6-11" value="" style="edgeStyle=orthogonalEdgeStyle;rounded=0;orthogonalLoop=1;jettySize=auto;html=1;dashed=1;" parent="1" source="Ajl7XlEclkEX4MVL0un6-4" target="Ajl7XlEclkEX4MVL0un6-2" edge="1">
          <mxGeometry relative="1" as="geometry" />
        </mxCell>
        <mxCell id="BbV9ipTeZK87WqjTc-pe-5" style="edgeStyle=orthogonalEdgeStyle;rounded=0;orthogonalLoop=1;jettySize=auto;html=1;exitX=0.5;exitY=0;exitDx=0;exitDy=0;entryX=0.5;entryY=1;entryDx=0;entryDy=0;entryPerimeter=0;" parent="1" source="Ajl7XlEclkEX4MVL0un6-4" target="Ajl7XlEclkEX4MVL0un6-13" edge="1">
          <mxGeometry relative="1" as="geometry" />
        </mxCell>
        <mxCell id="Ajl7XlEclkEX4MVL0un6-4" value="sales" style="rounded=0;whiteSpace=wrap;html=1;fillColor=#dae8fc;strokeColor=#6c8ebf;" parent="1" vertex="1">
          <mxGeometry x="270" y="-2250" width="120" height="60" as="geometry" />
        </mxCell>
        <mxCell id="Ajl7XlEclkEX4MVL0un6-9" style="edgeStyle=orthogonalEdgeStyle;rounded=0;orthogonalLoop=1;jettySize=auto;html=1;exitX=0.5;exitY=1;exitDx=0;exitDy=0;entryX=0.5;entryY=0;entryDx=0;entryDy=0;entryPerimeter=0;" parent="1" source="Ajl7XlEclkEX4MVL0un6-5" target="Ajl7XlEclkEX4MVL0un6-6" edge="1">
          <mxGeometry relative="1" as="geometry" />
        </mxCell>
        <mxCell id="Jwkcii6x6uwiXqLa5yYm-4" style="edgeStyle=orthogonalEdgeStyle;rounded=0;orthogonalLoop=1;jettySize=auto;html=1;exitX=0.5;exitY=0;exitDx=0;exitDy=0;entryX=0.5;entryY=1;entryDx=0;entryDy=0;entryPerimeter=0;" parent="1" source="Ajl7XlEclkEX4MVL0un6-5" target="Ajl7XlEclkEX4MVL0un6-1" edge="1">
          <mxGeometry relative="1" as="geometry" />
        </mxCell>
        <mxCell id="Ajl7XlEclkEX4MVL0un6-5" value="imos-dog" style="rounded=0;whiteSpace=wrap;html=1;fillColor=#d5e8d4;strokeColor=#82b366;" parent="1" vertex="1">
          <mxGeometry x="270" y="-1798" width="120" height="60" as="geometry" />
        </mxCell>
        <mxCell id="Ajl7XlEclkEX4MVL0un6-6" value="sqlserver" style="shape=cylinder3;whiteSpace=wrap;html=1;boundedLbl=1;backgroundOutline=1;size=15;" parent="1" vertex="1">
          <mxGeometry x="300" y="-1668" width="60" height="80" as="geometry" />
        </mxCell>
        <mxCell id="Ajl7XlEclkEX4MVL0un6-13" value="mysql" style="shape=cylinder3;whiteSpace=wrap;html=1;boundedLbl=1;backgroundOutline=1;size=15;fillColor=#1ba1e2;fontColor=#ffffff;strokeColor=#006EAF;" parent="1" vertex="1">
          <mxGeometry x="300" y="-2440" width="60" height="80" as="geometry" />
        </mxCell>
        <mxCell id="Ajl7XlEclkEX4MVL0un6-14" value="mysql" style="shape=cylinder3;whiteSpace=wrap;html=1;boundedLbl=1;backgroundOutline=1;size=15;fillColor=#1ba1e2;fontColor=#ffffff;strokeColor=#006EAF;" parent="1" vertex="1">
          <mxGeometry x="653" y="-2047" width="60" height="80" as="geometry" />
        </mxCell>
        <mxCell id="mybRUjiwXN9lIVhRDb3T-1" value="mongo" style="shape=cylinder3;whiteSpace=wrap;html=1;boundedLbl=1;backgroundOutline=1;size=15;fillColor=#1ba1e2;fontColor=#ffffff;strokeColor=#006EAF;" parent="1" vertex="1">
          <mxGeometry x="653" y="-2290" width="60" height="80" as="geometry" />
        </mxCell>
        <mxCell id="Jwkcii6x6uwiXqLa5yYm-1" style="edgeStyle=orthogonalEdgeStyle;rounded=0;orthogonalLoop=1;jettySize=auto;html=1;exitX=0.5;exitY=0;exitDx=0;exitDy=0;entryX=1;entryY=0.5;entryDx=0;entryDy=0;" parent="1" source="BbV9ipTeZK87WqjTc-pe-4" target="Ajl7XlEclkEX4MVL0un6-4" edge="1">
          <mxGeometry relative="1" as="geometry" />
        </mxCell>
        <mxCell id="Jwkcii6x6uwiXqLa5yYm-2" style="edgeStyle=orthogonalEdgeStyle;rounded=0;orthogonalLoop=1;jettySize=auto;html=1;exitX=0.5;exitY=1;exitDx=0;exitDy=0;entryX=1;entryY=0.5;entryDx=0;entryDy=0;" parent="1" source="BbV9ipTeZK87WqjTc-pe-4" target="Ajl7XlEclkEX4MVL0un6-2" edge="1">
          <mxGeometry relative="1" as="geometry" />
        </mxCell>
        <mxCell id="Jwkcii6x6uwiXqLa5yYm-5" style="edgeStyle=orthogonalEdgeStyle;rounded=0;orthogonalLoop=1;jettySize=auto;html=1;exitX=1;exitY=0.5;exitDx=0;exitDy=0;entryX=0;entryY=0.5;entryDx=0;entryDy=0;" parent="1" source="BbV9ipTeZK87WqjTc-pe-4" target="Ajl7XlEclkEX4MVL0un6-3" edge="1">
          <mxGeometry relative="1" as="geometry" />
        </mxCell>
        <mxCell id="BbV9ipTeZK87WqjTc-pe-4" value="Oauth Provider" style="shape=process;whiteSpace=wrap;html=1;backgroundOutline=1;fillColor=#b0e3e6;strokeColor=#0e8088;" parent="1" vertex="1">
          <mxGeometry x="450" y="-2160" width="120" height="60" as="geometry" />
        </mxCell>
      </root>
    </mxGraphModel>
  </diagram>
  <diagram id="b18D5ZBOZKlab-uu_izT" name="拆单数据处理">
    <mxGraphModel dx="1050" dy="538" grid="1" gridSize="10" guides="1" tooltips="1" connect="1" arrows="1" fold="1" page="1" pageScale="1" pageWidth="827" pageHeight="1169" math="0" shadow="0">
      <root>
        <mxCell id="0" />
        <mxCell id="1" parent="0" />
        <mxCell id="MrM3WiDKJ_GR7TqslKwe-1" value="&lt;div&gt;OMS&lt;/div&gt;&lt;div&gt;&lt;br&gt;&lt;/div&gt;&lt;div&gt;&lt;br&gt;&lt;/div&gt;&lt;div&gt;&lt;br&gt;&lt;/div&gt;&lt;div&gt;&lt;br&gt;&lt;/div&gt;&lt;div&gt;&lt;br&gt;&lt;/div&gt;&lt;div&gt;&lt;br&gt;&lt;/div&gt;&lt;div&gt;&lt;br&gt;&lt;/div&gt;&lt;div&gt;&lt;br&gt;&lt;/div&gt;&lt;div&gt;&lt;br&gt;&lt;/div&gt;&lt;div&gt;&lt;br&gt;&lt;/div&gt;&lt;div&gt;&lt;br&gt;&lt;/div&gt;&lt;div&gt;&lt;br&gt;&lt;/div&gt;&lt;div&gt;&lt;br&gt;&lt;/div&gt;&lt;div&gt;&lt;br&gt;&lt;/div&gt;&lt;div&gt;&lt;br&gt;&lt;/div&gt;&lt;div&gt;&lt;br&gt;&lt;/div&gt;&lt;div&gt;&lt;br&gt;&lt;/div&gt;&lt;div&gt;&lt;br&gt;&lt;/div&gt;&lt;div&gt;物料同步额外的字段：&lt;/div&gt;&lt;div&gt;长、宽、高、生产分类&lt;br&gt;&lt;/div&gt;" style="rounded=0;whiteSpace=wrap;html=1;fontStyle=1;fillColor=#f5f5f5;strokeColor=#666666;fontColor=#333333;" parent="1" vertex="1">
          <mxGeometry x="80" y="100" width="210" height="340" as="geometry" />
        </mxCell>
        <mxCell id="MrM3WiDKJ_GR7TqslKwe-2" value="+物料表" style="shape=process;whiteSpace=wrap;html=1;backgroundOutline=1;fontColor=#FF3333;" parent="1" vertex="1">
          <mxGeometry x="125" y="140" width="120" height="60" as="geometry" />
        </mxCell>
        <mxCell id="MrM3WiDKJ_GR7TqslKwe-3" value="&lt;div&gt;BOMB&lt;/div&gt;&lt;div&gt;&lt;br&gt;&lt;/div&gt;&lt;div&gt;&lt;br&gt;&lt;/div&gt;&lt;div&gt;&lt;br&gt;&lt;/div&gt;&lt;div&gt;&lt;br&gt;&lt;/div&gt;&lt;div&gt;&lt;br&gt;&lt;/div&gt;&lt;div&gt;&lt;br&gt;&lt;/div&gt;&lt;div&gt;&lt;br&gt;&lt;/div&gt;&lt;div&gt;&lt;br&gt;&lt;/div&gt;&lt;div&gt;&lt;br&gt;&lt;/div&gt;&lt;div&gt;&lt;br&gt;&lt;/div&gt;&lt;div&gt;&lt;br&gt;&lt;/div&gt;&lt;div&gt;&lt;br&gt;&lt;/div&gt;&lt;div&gt;&lt;br&gt;&lt;/div&gt;&lt;div&gt;&lt;br&gt;&lt;/div&gt;&lt;div&gt;&lt;br&gt;&lt;/div&gt;&lt;div&gt;&lt;br&gt;&lt;/div&gt;&lt;div&gt;&lt;br&gt;&lt;/div&gt;&lt;div&gt;&lt;br&gt;&lt;/div&gt;&lt;div&gt;拆单后的数据处理动作、程序设计和优化&lt;br&gt;&lt;/div&gt;" style="rounded=0;whiteSpace=wrap;html=1;fontStyle=1;fillColor=#f5f5f5;strokeColor=#666666;fontColor=#333333;" parent="1" vertex="1">
          <mxGeometry x="400" y="100" width="250" height="340" as="geometry" />
        </mxCell>
        <mxCell id="MrM3WiDKJ_GR7TqslKwe-4" style="edgeStyle=orthogonalEdgeStyle;rounded=0;orthogonalLoop=1;jettySize=auto;html=1;entryX=1;entryY=0.5;entryDx=0;entryDy=0;labelBorderColor=#FF0080;textOpacity=40;fontSize=2;dashed=1;" parent="1" source="MrM3WiDKJ_GR7TqslKwe-8" target="MrM3WiDKJ_GR7TqslKwe-15" edge="1">
          <mxGeometry relative="1" as="geometry" />
        </mxCell>
        <mxCell id="MrM3WiDKJ_GR7TqslKwe-5" value="存储过程代码执行" style="edgeLabel;html=1;align=center;verticalAlign=middle;resizable=0;points=[];fontColor=#B3B3B3;labelBorderColor=none;" parent="MrM3WiDKJ_GR7TqslKwe-4" vertex="1" connectable="0">
          <mxGeometry x="-0.2531" y="-2" relative="1" as="geometry">
            <mxPoint as="offset" />
          </mxGeometry>
        </mxCell>
        <mxCell id="MrM3WiDKJ_GR7TqslKwe-6" style="edgeStyle=orthogonalEdgeStyle;rounded=0;orthogonalLoop=1;jettySize=auto;html=1;entryX=1;entryY=0.5;entryDx=0;entryDy=0;fontColor=#FF3333;exitX=0.5;exitY=0;exitDx=0;exitDy=0;endArrow=openThin;endFill=0;fillColor=#647687;strokeColor=#FF3333;" parent="1" source="MrM3WiDKJ_GR7TqslKwe-8" target="MrM3WiDKJ_GR7TqslKwe-2" edge="1">
          <mxGeometry relative="1" as="geometry" />
        </mxCell>
        <mxCell id="MrM3WiDKJ_GR7TqslKwe-7" value="预期从OMS拿物料、识别生产分类" style="edgeLabel;html=1;align=center;verticalAlign=middle;resizable=0;points=[];fontColor=#FF3333;" parent="MrM3WiDKJ_GR7TqslKwe-6" vertex="1" connectable="0">
          <mxGeometry x="0.1313" relative="1" as="geometry">
            <mxPoint as="offset" />
          </mxGeometry>
        </mxCell>
        <mxCell id="MrM3WiDKJ_GR7TqslKwe-8" value="拆单明细表" style="shape=process;whiteSpace=wrap;html=1;backgroundOutline=1;" parent="1" vertex="1">
          <mxGeometry x="450" y="170" width="150" height="60" as="geometry" />
        </mxCell>
        <mxCell id="MrM3WiDKJ_GR7TqslKwe-9" value="&lt;div&gt;IMOS-DOG&lt;/div&gt;&lt;div&gt;&lt;br&gt;&lt;/div&gt;&lt;div&gt;&lt;br&gt;&lt;/div&gt;&lt;div&gt;&lt;br&gt;&lt;/div&gt;&lt;div&gt;&lt;br&gt;&lt;/div&gt;&lt;div&gt;&lt;br&gt;&lt;/div&gt;&lt;div&gt;&lt;br&gt;&lt;/div&gt;&lt;div&gt;&lt;br&gt;&lt;/div&gt;&lt;div&gt;&lt;br&gt;&lt;/div&gt;&lt;div&gt;&lt;br&gt;&lt;/div&gt;&lt;div&gt;&lt;br&gt;&lt;/div&gt;&lt;div&gt;&lt;br&gt;&lt;/div&gt;&lt;div&gt;&lt;br&gt;&lt;/div&gt;&lt;div&gt;&lt;br&gt;&lt;/div&gt;&lt;div&gt;&lt;br&gt;&lt;/div&gt;&lt;div&gt;&lt;br&gt;&lt;/div&gt;&lt;div&gt;&lt;br&gt;&lt;/div&gt;&lt;div&gt;&lt;br&gt;&lt;/div&gt;&lt;div&gt;&lt;br&gt;&lt;/div&gt;" style="rounded=0;whiteSpace=wrap;html=1;fontStyle=1;fillColor=#f5f5f5;strokeColor=#666666;fontColor=#333333;" parent="1" vertex="1">
          <mxGeometry x="720" y="100" width="210" height="340" as="geometry" />
        </mxCell>
        <mxCell id="MrM3WiDKJ_GR7TqslKwe-10" style="edgeStyle=orthogonalEdgeStyle;rounded=0;orthogonalLoop=1;jettySize=auto;html=1;entryX=1;entryY=0.5;entryDx=0;entryDy=0;strokeColor=#005700;fillColor=#008a00;" parent="1" source="MrM3WiDKJ_GR7TqslKwe-12" target="MrM3WiDKJ_GR7TqslKwe-8" edge="1">
          <mxGeometry relative="1" as="geometry" />
        </mxCell>
        <mxCell id="MrM3WiDKJ_GR7TqslKwe-11" value="拆单完成回写" style="edgeLabel;html=1;align=center;verticalAlign=middle;resizable=0;points=[];fontColor=#009900;" parent="MrM3WiDKJ_GR7TqslKwe-10" vertex="1" connectable="0">
          <mxGeometry x="0.2333" y="-3" relative="1" as="geometry">
            <mxPoint as="offset" />
          </mxGeometry>
        </mxCell>
        <mxCell id="MrM3WiDKJ_GR7TqslKwe-12" value="拆单明细表（板件、五金、拉手等）" style="shape=process;whiteSpace=wrap;html=1;backgroundOutline=1;" parent="1" vertex="1">
          <mxGeometry x="765" y="170" width="135" height="60" as="geometry" />
        </mxCell>
        <mxCell id="MrM3WiDKJ_GR7TqslKwe-13" style="edgeStyle=orthogonalEdgeStyle;rounded=0;orthogonalLoop=1;jettySize=auto;html=1;entryX=0;entryY=0.5;entryDx=0;entryDy=0;exitX=0;exitY=0.5;exitDx=0;exitDy=0;labelBorderColor=#B3B3B3;dashed=1;" parent="1" source="MrM3WiDKJ_GR7TqslKwe-15" target="MrM3WiDKJ_GR7TqslKwe-8" edge="1">
          <mxGeometry relative="1" as="geometry" />
        </mxCell>
        <mxCell id="MrM3WiDKJ_GR7TqslKwe-14" value="数据补偿" style="edgeLabel;html=1;align=center;verticalAlign=middle;resizable=0;points=[];fontColor=#B3B3B3;labelBorderColor=none;" parent="MrM3WiDKJ_GR7TqslKwe-13" vertex="1" connectable="0">
          <mxGeometry x="0.0494" y="-3" relative="1" as="geometry">
            <mxPoint x="1" as="offset" />
          </mxGeometry>
        </mxCell>
        <mxCell id="MrM3WiDKJ_GR7TqslKwe-15" value="联思基础表(弃用)" style="shape=process;whiteSpace=wrap;html=1;backgroundOutline=1;fontColor=#CCCCCC;labelBorderColor=none;dashed=1;strokeColor=#000000;" parent="1" vertex="1">
          <mxGeometry x="452.5" y="310" width="145" height="60" as="geometry" />
        </mxCell>
        <mxCell id="MrM3WiDKJ_GR7TqslKwe-16" value="+生产基础表" style="shape=process;whiteSpace=wrap;html=1;backgroundOutline=1;fontColor=#000000;labelBorderColor=none;strokeColor=#000000;" parent="1" vertex="1">
          <mxGeometry x="129" y="270" width="110" height="60" as="geometry" />
        </mxCell>
        <mxCell id="KPDuq7iEaKvWwrRqRoJj-2" value="重构不合理的存储过程实现" style="edgeStyle=orthogonalEdgeStyle;rounded=0;orthogonalLoop=1;jettySize=auto;html=1;exitX=0.5;exitY=0;exitDx=0;exitDy=0;entryX=0.5;entryY=1;entryDx=0;entryDy=0;" parent="1" source="KPDuq7iEaKvWwrRqRoJj-1" target="MrM3WiDKJ_GR7TqslKwe-3" edge="1">
          <mxGeometry relative="1" as="geometry" />
        </mxCell>
        <mxCell id="KPDuq7iEaKvWwrRqRoJj-3" style="edgeStyle=orthogonalEdgeStyle;rounded=0;orthogonalLoop=1;jettySize=auto;html=1;exitX=0;exitY=0.5;exitDx=0;exitDy=0;entryX=0.552;entryY=1.006;entryDx=0;entryDy=0;entryPerimeter=0;" parent="1" source="KPDuq7iEaKvWwrRqRoJj-1" target="MrM3WiDKJ_GR7TqslKwe-1" edge="1">
          <mxGeometry relative="1" as="geometry" />
        </mxCell>
        <mxCell id="KPDuq7iEaKvWwrRqRoJj-4" value="维护生产分类和物料、匹配规则" style="edgeLabel;html=1;align=center;verticalAlign=middle;resizable=0;points=[];" parent="KPDuq7iEaKvWwrRqRoJj-3" vertex="1" connectable="0">
          <mxGeometry x="-0.3402" y="-2" relative="1" as="geometry">
            <mxPoint as="offset" />
          </mxGeometry>
        </mxCell>
        <mxCell id="KPDuq7iEaKvWwrRqRoJj-1" value="设计" style="ellipse;whiteSpace=wrap;html=1;aspect=fixed;fillColor=#dae8fc;strokeColor=#6c8ebf;" parent="1" vertex="1">
          <mxGeometry x="485" y="510" width="80" height="80" as="geometry" />
        </mxCell>
      </root>
    </mxGraphModel>
  </diagram>
  <diagram id="m9IaujtpdmeexZP6YVUu" name="存储过程抽象处理">
    <mxGraphModel dx="1877" dy="1707" grid="1" gridSize="10" guides="1" tooltips="1" connect="1" arrows="1" fold="1" page="1" pageScale="1" pageWidth="827" pageHeight="1169" math="0" shadow="0">
      <root>
        <mxCell id="0" />
        <mxCell id="1" parent="0" />
        <mxCell id="wmfLYd95STNjSgaDL_Ot-6" style="edgeStyle=orthogonalEdgeStyle;rounded=0;orthogonalLoop=1;jettySize=auto;html=1;exitX=0.5;exitY=1;exitDx=0;exitDy=0;entryX=0.5;entryY=0;entryDx=0;entryDy=0;" parent="1" source="wmfLYd95STNjSgaDL_Ot-1" target="wmfLYd95STNjSgaDL_Ot-4" edge="1">
          <mxGeometry relative="1" as="geometry" />
        </mxCell>
        <mxCell id="wmfLYd95STNjSgaDL_Ot-1" value="生产分类" style="rounded=0;whiteSpace=wrap;html=1;" parent="1" vertex="1">
          <mxGeometry x="-480" y="110" width="120" height="60" as="geometry" />
        </mxCell>
        <mxCell id="wmfLYd95STNjSgaDL_Ot-7" style="edgeStyle=orthogonalEdgeStyle;rounded=0;orthogonalLoop=1;jettySize=auto;html=1;exitX=0.5;exitY=1;exitDx=0;exitDy=0;entryX=0.5;entryY=0;entryDx=0;entryDy=0;" parent="1" source="wmfLYd95STNjSgaDL_Ot-2" target="wmfLYd95STNjSgaDL_Ot-5" edge="1">
          <mxGeometry relative="1" as="geometry" />
        </mxCell>
        <mxCell id="wmfLYd95STNjSgaDL_Ot-9" style="edgeStyle=orthogonalEdgeStyle;rounded=0;orthogonalLoop=1;jettySize=auto;html=1;exitX=0.5;exitY=0;exitDx=0;exitDy=0;entryX=0.5;entryY=1;entryDx=0;entryDy=0;strokeColor=#FF3333;dashed=1;" parent="1" source="wmfLYd95STNjSgaDL_Ot-2" target="wmfLYd95STNjSgaDL_Ot-8" edge="1">
          <mxGeometry relative="1" as="geometry" />
        </mxCell>
        <mxCell id="wmfLYd95STNjSgaDL_Ot-2" value="物料编码" style="rounded=0;whiteSpace=wrap;html=1;" parent="1" vertex="1">
          <mxGeometry x="-260" y="110" width="120" height="60" as="geometry" />
        </mxCell>
        <mxCell id="wmfLYd95STNjSgaDL_Ot-12" style="edgeStyle=orthogonalEdgeStyle;rounded=0;orthogonalLoop=1;jettySize=auto;html=1;exitX=0.5;exitY=1;exitDx=0;exitDy=0;entryX=0;entryY=0.5;entryDx=0;entryDy=0;entryPerimeter=0;strokeColor=#FF3333;" parent="1" source="wmfLYd95STNjSgaDL_Ot-4" target="wmfLYd95STNjSgaDL_Ot-10" edge="1">
          <mxGeometry relative="1" as="geometry" />
        </mxCell>
        <mxCell id="wmfLYd95STNjSgaDL_Ot-13" value="更新拆单明细:productionFlowId" style="edgeLabel;html=1;align=center;verticalAlign=middle;resizable=0;points=[];" parent="wmfLYd95STNjSgaDL_Ot-12" vertex="1" connectable="0">
          <mxGeometry x="-0.1889" y="-3" relative="1" as="geometry">
            <mxPoint as="offset" />
          </mxGeometry>
        </mxCell>
        <mxCell id="wmfLYd95STNjSgaDL_Ot-4" value="update ...productFlowId=xxx" style="shape=process;whiteSpace=wrap;html=1;backgroundOutline=1;" parent="1" vertex="1">
          <mxGeometry x="-480" y="230" width="120" height="70" as="geometry" />
        </mxCell>
        <mxCell id="wmfLYd95STNjSgaDL_Ot-11" style="edgeStyle=orthogonalEdgeStyle;rounded=0;orthogonalLoop=1;jettySize=auto;html=1;exitX=0.5;exitY=1;exitDx=0;exitDy=0;entryX=1;entryY=0.5;entryDx=0;entryDy=0;entryPerimeter=0;strokeColor=#FF3333;" parent="1" source="wmfLYd95STNjSgaDL_Ot-5" target="wmfLYd95STNjSgaDL_Ot-10" edge="1">
          <mxGeometry relative="1" as="geometry" />
        </mxCell>
        <mxCell id="wmfLYd95STNjSgaDL_Ot-14" value="更新拆单明细：code" style="edgeLabel;html=1;align=center;verticalAlign=middle;resizable=0;points=[];" parent="wmfLYd95STNjSgaDL_Ot-11" vertex="1" connectable="0">
          <mxGeometry x="-0.1556" y="1" relative="1" as="geometry">
            <mxPoint as="offset" />
          </mxGeometry>
        </mxCell>
        <mxCell id="wmfLYd95STNjSgaDL_Ot-5" value="update ...code=xxx" style="shape=process;whiteSpace=wrap;html=1;backgroundOutline=1;" parent="1" vertex="1">
          <mxGeometry x="-260" y="230" width="120" height="70" as="geometry" />
        </mxCell>
        <mxCell id="wmfLYd95STNjSgaDL_Ot-8" value="Oms物料" style="rounded=0;whiteSpace=wrap;html=1;fillColor=#d5e8d4;strokeColor=#82b366;" parent="1" vertex="1">
          <mxGeometry x="-260" y="-10" width="120" height="60" as="geometry" />
        </mxCell>
        <mxCell id="wmfLYd95STNjSgaDL_Ot-10" value="mysql" style="shape=cylinder3;whiteSpace=wrap;html=1;boundedLbl=1;backgroundOutline=1;size=15;" parent="1" vertex="1">
          <mxGeometry x="-340" y="360" width="60" height="80" as="geometry" />
        </mxCell>
        <mxCell id="50TFe47V193lZdErCjzW-1" value="" style="shape=link;html=1;rounded=0;dashed=1;strokeColor=#FF3333;" parent="1" edge="1">
          <mxGeometry width="100" relative="1" as="geometry">
            <mxPoint x="-680" y="70" as="sourcePoint" />
            <mxPoint x="90" y="70" as="targetPoint" />
          </mxGeometry>
        </mxCell>
        <mxCell id="50TFe47V193lZdErCjzW-5" style="edgeStyle=orthogonalEdgeStyle;rounded=0;orthogonalLoop=1;jettySize=auto;html=1;exitX=1;exitY=0.5;exitDx=0;exitDy=0;dashed=1;strokeColor=#FF3333;" parent="1" source="50TFe47V193lZdErCjzW-4" edge="1">
          <mxGeometry relative="1" as="geometry">
            <mxPoint x="-480" y="270" as="targetPoint" />
          </mxGeometry>
        </mxCell>
        <mxCell id="50TFe47V193lZdErCjzW-4" value="匹配1,2,3...n" style="ellipse;whiteSpace=wrap;html=1;aspect=fixed;" parent="1" vertex="1">
          <mxGeometry x="-630" y="230" width="80" height="80" as="geometry" />
        </mxCell>
        <mxCell id="50TFe47V193lZdErCjzW-7" style="edgeStyle=orthogonalEdgeStyle;rounded=0;orthogonalLoop=1;jettySize=auto;html=1;exitX=0;exitY=0.5;exitDx=0;exitDy=0;entryX=1;entryY=0.5;entryDx=0;entryDy=0;dashed=1;strokeColor=#FF3333;" parent="1" source="50TFe47V193lZdErCjzW-6" target="wmfLYd95STNjSgaDL_Ot-5" edge="1">
          <mxGeometry relative="1" as="geometry" />
        </mxCell>
        <mxCell id="50TFe47V193lZdErCjzW-6" value="匹配1,2,3...n" style="ellipse;whiteSpace=wrap;html=1;aspect=fixed;" parent="1" vertex="1">
          <mxGeometry x="-60" y="225" width="80" height="80" as="geometry" />
        </mxCell>
      </root>
    </mxGraphModel>
  </diagram>
  <diagram id="nOgpa_NJqgNq8azGbGqc" name="价目表管理">
    <mxGraphModel dx="1877" dy="1707" grid="1" gridSize="10" guides="1" tooltips="1" connect="1" arrows="1" fold="1" page="1" pageScale="1" pageWidth="827" pageHeight="1169" math="0" shadow="0">
      <root>
        <mxCell id="0" />
        <mxCell id="1" parent="0" />
        <mxCell id="gialv2ARUVK_0_g-sfXM-3" style="edgeStyle=orthogonalEdgeStyle;rounded=0;orthogonalLoop=1;jettySize=auto;html=1;exitX=0.5;exitY=1;exitDx=0;exitDy=0;entryX=0.5;entryY=0;entryDx=0;entryDy=0;" parent="1" source="gialv2ARUVK_0_g-sfXM-1" target="gialv2ARUVK_0_g-sfXM-2" edge="1">
          <mxGeometry relative="1" as="geometry" />
        </mxCell>
        <mxCell id="gialv2ARUVK_0_g-sfXM-1" value="Excel" style="rounded=0;whiteSpace=wrap;html=1;fillColor=#f8cecc;strokeColor=#b85450;" parent="1" vertex="1">
          <mxGeometry x="294" y="-90" width="120" height="60" as="geometry" />
        </mxCell>
        <mxCell id="gialv2ARUVK_0_g-sfXM-5" style="edgeStyle=orthogonalEdgeStyle;rounded=0;orthogonalLoop=1;jettySize=auto;html=1;exitX=1;exitY=0.5;exitDx=0;exitDy=0;entryX=0.5;entryY=0;entryDx=0;entryDy=0;entryPerimeter=0;dashed=1;" parent="1" source="gialv2ARUVK_0_g-sfXM-2" target="gialv2ARUVK_0_g-sfXM-4" edge="1">
          <mxGeometry relative="1" as="geometry" />
        </mxCell>
        <mxCell id="gialv2ARUVK_0_g-sfXM-8" style="edgeStyle=orthogonalEdgeStyle;rounded=0;orthogonalLoop=1;jettySize=auto;html=1;exitX=0.5;exitY=1;exitDx=0;exitDy=0;entryX=0.5;entryY=0;entryDx=0;entryDy=0;" parent="1" source="gialv2ARUVK_0_g-sfXM-2" target="gialv2ARUVK_0_g-sfXM-6" edge="1">
          <mxGeometry relative="1" as="geometry" />
        </mxCell>
        <mxCell id="TWMYuL596vIEF6mqc4Mg-10" style="edgeStyle=orthogonalEdgeStyle;rounded=0;orthogonalLoop=1;jettySize=auto;html=1;exitX=1;exitY=0.25;exitDx=0;exitDy=0;entryX=0.5;entryY=1;entryDx=0;entryDy=0;" parent="1" source="gialv2ARUVK_0_g-sfXM-2" target="gialv2ARUVK_0_g-sfXM-23" edge="1">
          <mxGeometry relative="1" as="geometry" />
        </mxCell>
        <mxCell id="gialv2ARUVK_0_g-sfXM-2" value="原始数据" style="shape=process;whiteSpace=wrap;html=1;backgroundOutline=1;fillColor=#d5e8d4;strokeColor=#82b366;" parent="1" vertex="1">
          <mxGeometry x="294" y="90" width="120" height="60" as="geometry" />
        </mxCell>
        <mxCell id="gialv2ARUVK_0_g-sfXM-4" value="MongoDB" style="shape=cylinder3;whiteSpace=wrap;html=1;boundedLbl=1;backgroundOutline=1;size=15;fillColor=#dae8fc;strokeColor=#6c8ebf;" parent="1" vertex="1">
          <mxGeometry x="609" y="280" width="60" height="80" as="geometry" />
        </mxCell>
        <mxCell id="gialv2ARUVK_0_g-sfXM-7" style="edgeStyle=orthogonalEdgeStyle;rounded=0;orthogonalLoop=1;jettySize=auto;html=1;exitX=1;exitY=0.5;exitDx=0;exitDy=0;entryX=0;entryY=0.5;entryDx=0;entryDy=0;entryPerimeter=0;dashed=1;" parent="1" source="gialv2ARUVK_0_g-sfXM-6" target="gialv2ARUVK_0_g-sfXM-4" edge="1">
          <mxGeometry relative="1" as="geometry" />
        </mxCell>
        <mxCell id="gialv2ARUVK_0_g-sfXM-11" style="edgeStyle=orthogonalEdgeStyle;rounded=0;orthogonalLoop=1;jettySize=auto;html=1;exitX=0.5;exitY=1;exitDx=0;exitDy=0;entryX=0.5;entryY=0;entryDx=0;entryDy=0;" parent="1" source="gialv2ARUVK_0_g-sfXM-6" target="gialv2ARUVK_0_g-sfXM-9" edge="1">
          <mxGeometry relative="1" as="geometry" />
        </mxCell>
        <mxCell id="gialv2ARUVK_0_g-sfXM-6" value="设置报价属性" style="shape=process;whiteSpace=wrap;html=1;backgroundOutline=1;fillColor=#f8cecc;strokeColor=#b85450;" parent="1" vertex="1">
          <mxGeometry x="294" y="290" width="120" height="60" as="geometry" />
        </mxCell>
        <mxCell id="gialv2ARUVK_0_g-sfXM-10" style="edgeStyle=orthogonalEdgeStyle;rounded=0;orthogonalLoop=1;jettySize=auto;html=1;entryX=0.5;entryY=1;entryDx=0;entryDy=0;entryPerimeter=0;dashed=1;" parent="1" source="gialv2ARUVK_0_g-sfXM-9" target="gialv2ARUVK_0_g-sfXM-4" edge="1">
          <mxGeometry relative="1" as="geometry" />
        </mxCell>
        <mxCell id="gialv2ARUVK_0_g-sfXM-9" value="转换规则" style="shape=process;whiteSpace=wrap;html=1;backgroundOutline=1;fillColor=#d5e8d4;strokeColor=#82b366;" parent="1" vertex="1">
          <mxGeometry x="294" y="460" width="120" height="60" as="geometry" />
        </mxCell>
        <mxCell id="gialv2ARUVK_0_g-sfXM-16" value="&lt;div&gt;报价属性字段：如，花色、长、宽、高等&lt;/div&gt;&lt;div&gt;uniqueKey= mainColor+length+width+height&lt;br&gt;&lt;/div&gt;" style="shape=note;whiteSpace=wrap;html=1;backgroundOutline=1;darkOpacity=0.05;fillColor=#dae8fc;strokeColor=#6c8ebf;" parent="1" vertex="1">
          <mxGeometry x="-150" y="260" width="290" height="100" as="geometry" />
        </mxCell>
        <mxCell id="gialv2ARUVK_0_g-sfXM-20" value="&lt;div&gt;版本管理介入：导入数据+version&lt;/div&gt;&lt;div&gt;表设计：ModelSchema-类目，ModelSchemaRow记录&lt;br&gt;&lt;/div&gt;" style="shape=note;whiteSpace=wrap;html=1;backgroundOutline=1;darkOpacity=0.05;fillColor=#dae8fc;strokeColor=#6c8ebf;" parent="1" vertex="1">
          <mxGeometry x="-150" y="70" width="290" height="100" as="geometry" />
        </mxCell>
        <mxCell id="gialv2ARUVK_0_g-sfXM-21" value="" style="html=1;shadow=0;dashed=0;align=center;verticalAlign=middle;shape=mxgraph.arrows2.sharpArrow;dy1=0.67;dx1=18;dx2=18;notch=0;" parent="1" vertex="1">
          <mxGeometry x="160" y="290" width="100" height="60" as="geometry" />
        </mxCell>
        <mxCell id="TWMYuL596vIEF6mqc4Mg-11" style="edgeStyle=orthogonalEdgeStyle;rounded=0;orthogonalLoop=1;jettySize=auto;html=1;exitX=1;exitY=0.5;exitDx=0;exitDy=0;entryX=1;entryY=0.5;entryDx=0;entryDy=0;entryPerimeter=0;" parent="1" source="gialv2ARUVK_0_g-sfXM-23" target="gialv2ARUVK_0_g-sfXM-4" edge="1">
          <mxGeometry relative="1" as="geometry" />
        </mxCell>
        <mxCell id="gialv2ARUVK_0_g-sfXM-23" value="版本管理" style="shape=process;whiteSpace=wrap;html=1;backgroundOutline=1;fillColor=#d5e8d4;strokeColor=#82b366;" parent="1" vertex="1">
          <mxGeometry x="477.5" y="-90" width="120" height="60" as="geometry" />
        </mxCell>
        <mxCell id="gialv2ARUVK_0_g-sfXM-19" value="" style="html=1;shadow=0;dashed=0;align=center;verticalAlign=middle;shape=mxgraph.arrows2.sharpArrow;dy1=0.67;dx1=18;dx2=18;notch=0;" parent="1" vertex="1">
          <mxGeometry x="160" y="90" width="100" height="60" as="geometry" />
        </mxCell>
        <mxCell id="TWMYuL596vIEF6mqc4Mg-5" style="edgeStyle=orthogonalEdgeStyle;rounded=0;orthogonalLoop=1;jettySize=auto;html=1;exitX=0.5;exitY=1;exitDx=0;exitDy=0;entryX=0;entryY=0.5;entryDx=0;entryDy=0;" parent="1" source="TWMYuL596vIEF6mqc4Mg-1" target="TWMYuL596vIEF6mqc4Mg-2" edge="1">
          <mxGeometry relative="1" as="geometry" />
        </mxCell>
        <mxCell id="TWMYuL596vIEF6mqc4Mg-1" value="version_collection" style="rounded=0;whiteSpace=wrap;html=1;" parent="1" vertex="1">
          <mxGeometry x="50" y="800" width="120" height="60" as="geometry" />
        </mxCell>
        <mxCell id="TWMYuL596vIEF6mqc4Mg-6" style="edgeStyle=orthogonalEdgeStyle;rounded=0;orthogonalLoop=1;jettySize=auto;html=1;exitX=0.5;exitY=1;exitDx=0;exitDy=0;entryX=0;entryY=0.5;entryDx=0;entryDy=0;" parent="1" source="TWMYuL596vIEF6mqc4Mg-2" target="TWMYuL596vIEF6mqc4Mg-3" edge="1">
          <mxGeometry relative="1" as="geometry" />
        </mxCell>
        <mxCell id="TWMYuL596vIEF6mqc4Mg-2" value="version_sheet_collection" style="rounded=0;whiteSpace=wrap;html=1;" parent="1" vertex="1">
          <mxGeometry x="250" y="880" width="140" height="60" as="geometry" />
        </mxCell>
        <mxCell id="TWMYuL596vIEF6mqc4Mg-3" value="version_sheet_data_collection" style="rounded=0;whiteSpace=wrap;html=1;" parent="1" vertex="1">
          <mxGeometry x="440" y="960" width="180" height="60" as="geometry" />
        </mxCell>
        <mxCell id="TWMYuL596vIEF6mqc4Mg-7" value="版本信息" style="shape=note;whiteSpace=wrap;html=1;backgroundOutline=1;darkOpacity=0.05;" parent="1" vertex="1">
          <mxGeometry x="70" y="690" width="80" height="100" as="geometry" />
        </mxCell>
        <mxCell id="TWMYuL596vIEF6mqc4Mg-8" value="版本分类信息" style="shape=note;whiteSpace=wrap;html=1;backgroundOutline=1;darkOpacity=0.05;" parent="1" vertex="1">
          <mxGeometry x="270" y="770" width="80" height="100" as="geometry" />
        </mxCell>
        <mxCell id="TWMYuL596vIEF6mqc4Mg-9" value="版本分类价目数据信息" style="shape=note;whiteSpace=wrap;html=1;backgroundOutline=1;darkOpacity=0.05;" parent="1" vertex="1">
          <mxGeometry x="500" y="850" width="75" height="100" as="geometry" />
        </mxCell>
      </root>
    </mxGraphModel>
  </diagram>
  <diagram id="SoOhv4sDXpB5BAT2kSEy" name="联思数据同步与比较">
    <mxGraphModel dx="1877" dy="538" grid="1" gridSize="10" guides="1" tooltips="1" connect="1" arrows="1" fold="1" page="1" pageScale="1" pageWidth="827" pageHeight="1169" math="0" shadow="0">
      <root>
        <mxCell id="0" />
        <mxCell id="1" parent="0" />
        <mxCell id="816tzz3vf455XlVjnZX5-1" value="&lt;div&gt;工厂远程连接：171.221.246.111:8011 Administrator&amp;nbsp;&amp;nbsp; Liweijia123&lt;/div&gt;&lt;div&gt;&lt;br&gt;&lt;/div&gt;&lt;div&gt;&amp;nbsp;&lt;br&gt;&lt;/div&gt;&lt;div&gt;云联思连接：101.200.193.33:9389&amp;nbsp;&amp;nbsp;&amp;nbsp; bTPx0GXo_administrator&amp;nbsp;&amp;nbsp;&amp;nbsp;&amp;nbsp;&amp;nbsp; d7WftmqStXmwsMZJ&lt;br&gt;&lt;/div&gt;" style="shape=document;whiteSpace=wrap;html=1;boundedLbl=1;align=left;fontColor=#000000;strokeColor=#000000;" vertex="1" parent="1">
          <mxGeometry x="-10" y="30" width="570" height="150" as="geometry" />
        </mxCell>
        <mxCell id="816tzz3vf455XlVjnZX5-2" value="服务器信息" style="rounded=1;whiteSpace=wrap;html=1;fillColor=#dae8fc;strokeColor=#6c8ebf;" vertex="1" parent="1">
          <mxGeometry x="-160" y="60" width="120" height="60" as="geometry" />
        </mxCell>
        <mxCell id="816tzz3vf455XlVjnZX5-3" value="本地联思" style="rounded=0;whiteSpace=wrap;html=1;" vertex="1" parent="1">
          <mxGeometry y="280" width="120" height="60" as="geometry" />
        </mxCell>
        <mxCell id="816tzz3vf455XlVjnZX5-4" value="云化联思" style="rounded=0;whiteSpace=wrap;html=1;" vertex="1" parent="1">
          <mxGeometry x="450" y="270" width="120" height="60" as="geometry" />
        </mxCell>
        <mxCell id="816tzz3vf455XlVjnZX5-5" value="同步数据库数据" style="ellipse;whiteSpace=wrap;html=1;" vertex="1" parent="1">
          <mxGeometry x="220" y="200" width="160" height="80" as="geometry" />
        </mxCell>
        <mxCell id="816tzz3vf455XlVjnZX5-6" value="同步文件数据(结构不同)" style="ellipse;whiteSpace=wrap;html=1;" vertex="1" parent="1">
          <mxGeometry x="220" y="350" width="160" height="80" as="geometry" />
        </mxCell>
        <mxCell id="816tzz3vf455XlVjnZX5-7" value="" style="endArrow=classic;html=1;rounded=0;exitX=1;exitY=0.5;exitDx=0;exitDy=0;" edge="1" parent="1" source="816tzz3vf455XlVjnZX5-3" target="816tzz3vf455XlVjnZX5-5">
          <mxGeometry width="50" height="50" relative="1" as="geometry">
            <mxPoint x="130" y="310" as="sourcePoint" />
            <mxPoint x="180" y="260" as="targetPoint" />
          </mxGeometry>
        </mxCell>
        <mxCell id="816tzz3vf455XlVjnZX5-8" value="" style="endArrow=classic;html=1;rounded=0;entryX=0;entryY=0.5;entryDx=0;entryDy=0;exitX=1;exitY=0.75;exitDx=0;exitDy=0;" edge="1" parent="1" source="816tzz3vf455XlVjnZX5-3" target="816tzz3vf455XlVjnZX5-6">
          <mxGeometry width="50" height="50" relative="1" as="geometry">
            <mxPoint x="140" y="400" as="sourcePoint" />
            <mxPoint x="190" y="350" as="targetPoint" />
          </mxGeometry>
        </mxCell>
        <mxCell id="816tzz3vf455XlVjnZX5-9" value="" style="endArrow=classic;html=1;rounded=0;entryX=0;entryY=0.5;entryDx=0;entryDy=0;exitX=1;exitY=0.5;exitDx=0;exitDy=0;dashed=1;" edge="1" parent="1" source="816tzz3vf455XlVjnZX5-5" target="816tzz3vf455XlVjnZX5-4">
          <mxGeometry width="50" height="50" relative="1" as="geometry">
            <mxPoint x="350" y="310" as="sourcePoint" />
            <mxPoint x="400" y="260" as="targetPoint" />
          </mxGeometry>
        </mxCell>
        <mxCell id="816tzz3vf455XlVjnZX5-10" value="" style="endArrow=classic;html=1;rounded=0;entryX=0;entryY=1;entryDx=0;entryDy=0;exitX=1;exitY=0.5;exitDx=0;exitDy=0;dashed=1;" edge="1" parent="1" source="816tzz3vf455XlVjnZX5-6" target="816tzz3vf455XlVjnZX5-4">
          <mxGeometry width="50" height="50" relative="1" as="geometry">
            <mxPoint x="390" y="250" as="sourcePoint" />
            <mxPoint x="460" y="310" as="targetPoint" />
            <Array as="points" />
          </mxGeometry>
        </mxCell>
        <mxCell id="816tzz3vf455XlVjnZX5-11" value="数据同步一阶段" style="rounded=1;whiteSpace=wrap;html=1;fillColor=#dae8fc;strokeColor=#6c8ebf;" vertex="1" parent="1">
          <mxGeometry x="-160" y="280" width="120" height="60" as="geometry" />
        </mxCell>
        <mxCell id="816tzz3vf455XlVjnZX5-12" value="数据同步二阶段" style="rounded=1;whiteSpace=wrap;html=1;fillColor=#dae8fc;strokeColor=#6c8ebf;" vertex="1" parent="1">
          <mxGeometry x="-160" y="688" width="120" height="60" as="geometry" />
        </mxCell>
        <mxCell id="816tzz3vf455XlVjnZX5-19" style="edgeStyle=orthogonalEdgeStyle;rounded=0;orthogonalLoop=1;jettySize=auto;html=1;exitX=1;exitY=0.5;exitDx=0;exitDy=0;fontColor=#000000;entryX=0;entryY=0.5;entryDx=0;entryDy=0;entryPerimeter=0;" edge="1" parent="1" source="816tzz3vf455XlVjnZX5-13" target="816tzz3vf455XlVjnZX5-15">
          <mxGeometry relative="1" as="geometry">
            <mxPoint x="210" y="683" as="targetPoint" />
          </mxGeometry>
        </mxCell>
        <mxCell id="816tzz3vf455XlVjnZX5-13" value="BOMB拆单数据" style="rounded=0;whiteSpace=wrap;html=1;" vertex="1" parent="1">
          <mxGeometry y="633" width="120" height="60" as="geometry" />
        </mxCell>
        <mxCell id="816tzz3vf455XlVjnZX5-20" style="edgeStyle=orthogonalEdgeStyle;rounded=0;orthogonalLoop=1;jettySize=auto;html=1;exitX=1;exitY=0.5;exitDx=0;exitDy=0;entryX=0;entryY=0.5;entryDx=0;entryDy=0;entryPerimeter=0;fontColor=#000000;" edge="1" parent="1" source="816tzz3vf455XlVjnZX5-14" target="816tzz3vf455XlVjnZX5-16">
          <mxGeometry relative="1" as="geometry" />
        </mxCell>
        <mxCell id="816tzz3vf455XlVjnZX5-14" value="本地云联思数据" style="rounded=0;whiteSpace=wrap;html=1;" vertex="1" parent="1">
          <mxGeometry y="748" width="120" height="60" as="geometry" />
        </mxCell>
        <mxCell id="816tzz3vf455XlVjnZX5-15" value="Excel1" style="shape=note;whiteSpace=wrap;html=1;backgroundOutline=1;darkOpacity=0.05;fontColor=#000000;" vertex="1" parent="1">
          <mxGeometry x="235" y="630.5" width="80" height="65" as="geometry" />
        </mxCell>
        <mxCell id="816tzz3vf455XlVjnZX5-16" value="Excel2" style="shape=note;whiteSpace=wrap;html=1;backgroundOutline=1;darkOpacity=0.05;fontColor=#000000;" vertex="1" parent="1">
          <mxGeometry x="235" y="745.5" width="80" height="65" as="geometry" />
        </mxCell>
        <mxCell id="816tzz3vf455XlVjnZX5-21" style="edgeStyle=orthogonalEdgeStyle;rounded=0;orthogonalLoop=1;jettySize=auto;html=1;exitX=0.5;exitY=0;exitDx=0;exitDy=0;entryX=0;entryY=0;entryDx=80;entryDy=30;entryPerimeter=0;fontColor=#000000;dashed=1;" edge="1" parent="1" source="816tzz3vf455XlVjnZX5-17" target="816tzz3vf455XlVjnZX5-15">
          <mxGeometry relative="1" as="geometry" />
        </mxCell>
        <mxCell id="816tzz3vf455XlVjnZX5-22" style="edgeStyle=orthogonalEdgeStyle;rounded=0;orthogonalLoop=1;jettySize=auto;html=1;exitX=0.5;exitY=1;exitDx=0;exitDy=0;entryX=0;entryY=0;entryDx=80;entryDy=47.5;entryPerimeter=0;fontColor=#000000;dashed=1;" edge="1" parent="1" source="816tzz3vf455XlVjnZX5-17" target="816tzz3vf455XlVjnZX5-16">
          <mxGeometry relative="1" as="geometry" />
        </mxCell>
        <mxCell id="816tzz3vf455XlVjnZX5-24" style="edgeStyle=orthogonalEdgeStyle;rounded=0;orthogonalLoop=1;jettySize=auto;html=1;exitX=1;exitY=0.5;exitDx=0;exitDy=0;fontColor=#000000;" edge="1" parent="1" source="816tzz3vf455XlVjnZX5-17" target="816tzz3vf455XlVjnZX5-23">
          <mxGeometry relative="1" as="geometry" />
        </mxCell>
        <mxCell id="816tzz3vf455XlVjnZX5-17" value="数据校验核对" style="ellipse;whiteSpace=wrap;html=1;fontColor=#000000;" vertex="1" parent="1">
          <mxGeometry x="400" y="688" width="120" height="80" as="geometry" />
        </mxCell>
        <mxCell id="816tzz3vf455XlVjnZX5-27" value="是" style="edgeStyle=orthogonalEdgeStyle;rounded=0;orthogonalLoop=1;jettySize=auto;html=1;exitX=0.5;exitY=1;exitDx=0;exitDy=0;entryX=0.5;entryY=0;entryDx=0;entryDy=0;fontColor=#000000;" edge="1" parent="1" source="816tzz3vf455XlVjnZX5-23" target="816tzz3vf455XlVjnZX5-26">
          <mxGeometry relative="1" as="geometry" />
        </mxCell>
        <mxCell id="816tzz3vf455XlVjnZX5-30" value="否" style="edgeStyle=orthogonalEdgeStyle;rounded=0;orthogonalLoop=1;jettySize=auto;html=1;exitX=0.5;exitY=0;exitDx=0;exitDy=0;entryX=0.5;entryY=1;entryDx=0;entryDy=0;fontColor=#000000;" edge="1" parent="1" source="816tzz3vf455XlVjnZX5-23" target="816tzz3vf455XlVjnZX5-29">
          <mxGeometry relative="1" as="geometry" />
        </mxCell>
        <mxCell id="816tzz3vf455XlVjnZX5-23" value="数据是否一致" style="rhombus;whiteSpace=wrap;html=1;fontColor=#000000;" vertex="1" parent="1">
          <mxGeometry x="600" y="683" width="100" height="90" as="geometry" />
        </mxCell>
        <mxCell id="816tzz3vf455XlVjnZX5-26" value="结束" style="rounded=1;whiteSpace=wrap;html=1;fillColor=#d5e8d4;strokeColor=#82b366;" vertex="1" parent="1">
          <mxGeometry x="590" y="853" width="120" height="60" as="geometry" />
        </mxCell>
        <mxCell id="816tzz3vf455XlVjnZX5-29" value="完善BOMB拆单数据" style="ellipse;whiteSpace=wrap;html=1;fillColor=#f8cecc;strokeColor=#b85450;" vertex="1" parent="1">
          <mxGeometry x="590" y="533" width="120" height="80" as="geometry" />
        </mxCell>
        <mxCell id="816tzz3vf455XlVjnZX5-31" value="C_Order" style="swimlane;fontStyle=0;childLayout=stackLayout;horizontal=1;startSize=30;horizontalStack=0;resizeParent=1;resizeParentMax=0;resizeLast=0;collapsible=1;marginBottom=0;whiteSpace=wrap;html=1;fontColor=#000000;" vertex="1" parent="1">
          <mxGeometry y="810" width="140" height="120" as="geometry" />
        </mxCell>
        <mxCell id="816tzz3vf455XlVjnZX5-32" value="Id" style="text;strokeColor=none;fillColor=none;align=left;verticalAlign=middle;spacingLeft=4;spacingRight=4;overflow=hidden;points=[[0,0.5],[1,0.5]];portConstraint=eastwest;rotatable=0;whiteSpace=wrap;html=1;fontColor=#000000;" vertex="1" parent="816tzz3vf455XlVjnZX5-31">
          <mxGeometry y="30" width="140" height="30" as="geometry" />
        </mxCell>
        <mxCell id="816tzz3vf455XlVjnZX5-33" value="OrderNo" style="text;strokeColor=none;fillColor=none;align=left;verticalAlign=middle;spacingLeft=4;spacingRight=4;overflow=hidden;points=[[0,0.5],[1,0.5]];portConstraint=eastwest;rotatable=0;whiteSpace=wrap;html=1;fontColor=#000000;" vertex="1" parent="816tzz3vf455XlVjnZX5-31">
          <mxGeometry y="60" width="140" height="30" as="geometry" />
        </mxCell>
        <mxCell id="816tzz3vf455XlVjnZX5-34" value="....." style="text;strokeColor=none;fillColor=none;align=left;verticalAlign=middle;spacingLeft=4;spacingRight=4;overflow=hidden;points=[[0,0.5],[1,0.5]];portConstraint=eastwest;rotatable=0;whiteSpace=wrap;html=1;fontColor=#000000;" vertex="1" parent="816tzz3vf455XlVjnZX5-31">
          <mxGeometry y="90" width="140" height="30" as="geometry" />
        </mxCell>
        <mxCell id="816tzz3vf455XlVjnZX5-35" value="bomb_separate_item" style="swimlane;fontStyle=0;childLayout=stackLayout;horizontal=1;startSize=30;horizontalStack=0;resizeParent=1;resizeParentMax=0;resizeLast=0;collapsible=1;marginBottom=0;whiteSpace=wrap;html=1;fontColor=#000000;" vertex="1" parent="1">
          <mxGeometry y="510.5" width="140" height="120" as="geometry" />
        </mxCell>
        <mxCell id="816tzz3vf455XlVjnZX5-36" value="id" style="text;strokeColor=none;fillColor=none;align=left;verticalAlign=middle;spacingLeft=4;spacingRight=4;overflow=hidden;points=[[0,0.5],[1,0.5]];portConstraint=eastwest;rotatable=0;whiteSpace=wrap;html=1;fontColor=#000000;" vertex="1" parent="816tzz3vf455XlVjnZX5-35">
          <mxGeometry y="30" width="140" height="30" as="geometry" />
        </mxCell>
        <mxCell id="816tzz3vf455XlVjnZX5-37" value="orderId" style="text;strokeColor=none;fillColor=none;align=left;verticalAlign=middle;spacingLeft=4;spacingRight=4;overflow=hidden;points=[[0,0.5],[1,0.5]];portConstraint=eastwest;rotatable=0;whiteSpace=wrap;html=1;fontColor=#000000;" vertex="1" parent="816tzz3vf455XlVjnZX5-35">
          <mxGeometry y="60" width="140" height="30" as="geometry" />
        </mxCell>
        <mxCell id="816tzz3vf455XlVjnZX5-38" value="...." style="text;strokeColor=none;fillColor=none;align=left;verticalAlign=middle;spacingLeft=4;spacingRight=4;overflow=hidden;points=[[0,0.5],[1,0.5]];portConstraint=eastwest;rotatable=0;whiteSpace=wrap;html=1;fontColor=#000000;" vertex="1" parent="816tzz3vf455XlVjnZX5-35">
          <mxGeometry y="90" width="140" height="30" as="geometry" />
        </mxCell>
        <mxCell id="816tzz3vf455XlVjnZX5-39" value="&lt;b&gt;1、一阶段：同步问题解决方法 通过datax 定义preSql预先处理SQL解决ID重复问题处理：&lt;/b&gt;&lt;br&gt;&lt;br&gt;&lt;div&gt;示例：&quot;preSql&quot; : [&quot;delete from C_Order where&amp;nbsp; Id in ( select co.id from c_order co&amp;nbsp; where DateDiff(dd, co.SyncOrderDateTime, &#39;${synDate}&#39;) = 0 )&quot;]，&lt;/div&gt;&lt;div&gt;&lt;br&gt;&lt;/div&gt;&lt;div&gt;&lt;font color=&quot;#FF6B2B&quot;&gt;&lt;b&gt;注：如表结构变动同步失败需要手动修改云联思表结构和Datax 同步任务的json配置&lt;/b&gt;&lt;/font&gt;&lt;/div&gt;&lt;div&gt;&lt;br&gt;&lt;/div&gt;&lt;div&gt;&lt;b&gt;2、二阶段：将新拆单-拆单明细和云联思数据库字段进行对应，方便核对&lt;/b&gt;&lt;/div&gt;&lt;div&gt;&lt;b&gt;&lt;br&gt;&lt;/b&gt;&lt;/div&gt;&lt;div&gt;&lt;font color=&quot;#FF6B2B&quot;&gt;同步的字段要跟云联思保持一致，如果不一致需要不断地对数据进行修复处理&lt;/font&gt;&lt;/div&gt;&lt;div&gt;&lt;br&gt;&lt;/div&gt;&lt;div&gt;&lt;b&gt;本地云联思(工厂&lt;/b&gt;&lt;b&gt;拆单&lt;/b&gt;&lt;b&gt;)数据字段与BOMB拆单结果字段比对&lt;/b&gt;&lt;/div&gt;&lt;div&gt;&lt;br&gt;&lt;/div&gt;&lt;div&gt;&quot;Id&quot;,&quot;DealerId&quot;,&quot;ContractNo&quot;,&quot;OrderNo&quot;,&quot;DrawingCount&quot;,&quot;DrawingSeq&quot;,&lt;br&gt;&quot;FactoryNo&quot;,&quot;OriginalOrderNo&quot;,&quot;OrderCategory&quot;,&quot;OrderType&quot;,&lt;br&gt;&quot;SplitBOMType&quot;,&quot;DrawingType&quot;,&quot;OrderStatus&quot;,&quot;ProductTypeId&quot;,&lt;br&gt;&quot;ProductName&quot;,&quot;IsUrgent&quot;,&quot;IsRejected&quot;,&quot;ClientName&quot;,&quot;ClientPhoneNo&quot;,&lt;br&gt;&quot;ClientAddress&quot;,&quot;ClientEmail&quot;,&quot;ColorDesc&quot;,&quot;DealerRemark&quot;,&quot;ShadowArea&quot;,&lt;br&gt;&quot;TotalArea&quot;,&quot;TotalCubage&quot;,&quot;TotalWeight&quot;,&quot;Amount&quot;,&quot;DiscountAmount&quot;,&lt;br&gt;&quot;DiscountRate&quot;,&quot;ActualAmount&quot;,&quot;Remark&quot;,&quot;CreatedBy&quot;,&quot;CreatedDateTime&quot;,&lt;br&gt;&quot;UpdatedBy&quot;,&quot;UpdatedDateTime&quot;,&quot;OrderSubmitedBy&quot;,&quot;OrderSubmitedDateTime&quot;,&lt;br&gt;&quot;AcceptedBy&quot;,&quot;AcceptedDateTime&quot;,&quot;DesignApprovedBy&quot;,&quot;DesignApprovedDateTime&quot;,&lt;br&gt;&quot;BOMApprovedBy&quot;,&quot;BOMApprovedDateTime&quot;,&quot;QuotedBy&quot;,&quot;QuotedDateTime&quot;,&lt;br&gt;&quot;QuotedRemark&quot;,&quot;DealerConfirmedBy&quot;,&quot;DealerConfirmedDateTime&quot;,&quot;DealerPayRemark&quot;,&lt;br&gt;&quot;PayConfirmedBy&quot;,&quot;PayConfirmedDateTime&quot;,&quot;FinanceApprovedBy&quot;,&quot;FinanceApprovedDateTime&quot;,&lt;br&gt;&quot;ShipmentDatePlanedBy&quot;,&quot;ShipmentDatePlanedDateTime&quot;,&quot;ShipmentDatePlaned&quot;,&quot;ProductionStartDateTime&quot;,&lt;br&gt;&quot;ProductionDatePlan&quot;,&quot;FinishDateTime&quot;,&quot;ShipmentDatePromise&quot;,&quot;ShipmentDateTime&quot;,&quot;DealerShopId&quot;,&lt;br&gt;&quot;PreInstalledDate&quot;,&quot;SaleType&quot;,&quot;MPRFolder&quot;,&quot;PickNo&quot;,&quot;PlanAcceptedBy&quot;,&quot;PlanAcceptedDateTime&quot;,&lt;br&gt;&quot;ColorId&quot;,&quot;IsIncludeChest&quot;,&quot;ChestApprovedBy&quot;,&quot;ChestApprovedDateTime&quot;,&quot;IsIncludeSlideDoor&quot;,&lt;br&gt;&quot;SlideDoorApprovedBy&quot;,&quot;SlideDoorApprovedDateTime&quot;,&quot;SplitBOMPriority&quot;,&quot;SplitBOMStatus&quot;,&lt;br&gt;&quot;SplitBOMServerName&quot;,&quot;Designer&quot;,&quot;DesignerPhone&quot;,&quot;ChestReApprovedBy&quot;,&quot;ChestReApprovedDateTime&quot;,&lt;br&gt;&quot;SlideDoorReApprovedBy&quot;,&quot;SlideDoorReApprovedDateTime&quot;,&quot;OriginalAmount&quot;,&quot;MaterialTypeId&quot;,&lt;br&gt;&quot;CancelRemark&quot;,&quot;Ploidy&quot;,&quot;OrderDataIsFromImport&quot;,&quot;HolesApprovedDateTime&quot;,&quot;HolesApprovedBy&quot;,&lt;br&gt;&quot;HasInnerRepair&quot;,&quot;DrawingCheckBy&quot;,&quot;ChestSplitBy&quot;,&quot;DoorSplitBy&quot;,&quot;BOMSplitBy&quot;,&quot;AssignQuoteBy&quot;,&lt;br&gt;&quot;Split3DStatus&quot;,&quot;CustomerId&quot;,&quot;ProductionTypeName&quot;,&quot;IsShipmentAlone&quot;,&quot;MainColorTotalArea&quot;,&lt;br&gt;&quot;MaterialTypeDesc&quot;,&quot;CloudId&quot;,&quot;BOMReApprovedBy&quot;,&quot;BOMReApprovedDateTime&quot;,&quot;IsFromLwj&quot;,&lt;br&gt;&quot;OrderGUID&quot;,&quot;SyncOrderStatus&quot;,&quot;BOMSplitDateTime&quot;,&quot;ReviseOrderBy&quot;,&quot;SyncOrderDateTime&quot;,&lt;br&gt;&quot;ChTotalAccount&quot;,&quot;ProductionDistributionApprovedBy&quot;,&quot;ProductionDistributionApprovedDateTime&quot;,&lt;br&gt;&quot;lx&quot;,&quot;ProjectId&quot;,&quot;ProjectBatchId&quot;,&quot;ProjectHouseType&quot;,&quot;BuildingNo&quot;,&quot;RoomNo&quot;,&quot;IsAllInputComplete&quot;,&lt;br&gt;&quot;Zone&quot;,&quot;ContractNoRemark&quot;,&quot;AllInputCompleteDate&quot;,&quot;ProjectLoft&quot;,&quot;DesignUrl&quot;,&quot;TestFreeAssembly&quot;&lt;br&gt;&lt;/div&gt;&lt;div&gt;&lt;br&gt;&lt;/div&gt;" style="shape=document;whiteSpace=wrap;html=1;boundedLbl=1;align=left;" vertex="1" parent="1">
          <mxGeometry x="-43" y="1100" width="740" height="900" as="geometry" />
        </mxCell>
        <mxCell id="816tzz3vf455XlVjnZX5-41" value="补充信息" style="rounded=1;whiteSpace=wrap;html=1;fillColor=#dae8fc;strokeColor=#6c8ebf;" vertex="1" parent="1">
          <mxGeometry x="-170" y="1100" width="120" height="60" as="geometry" />
        </mxCell>
      </root>
    </mxGraphModel>
  </diagram>
</mxfile>
